<?xml version="1.0" encoding="UTF-8" standalone="no"?>
<!-- Created with Inkscape (http://www.inkscape.org/) -->

<svg
   xmlns:dc="http://purl.org/dc/elements/1.1/"
   xmlns:cc="http://creativecommons.org/ns#"
   xmlns:rdf="http://www.w3.org/1999/02/22-rdf-syntax-ns#"
   xmlns:svg="http://www.w3.org/2000/svg"
   xmlns="http://www.w3.org/2000/svg"
   xmlns:sodipodi="http://sodipodi.sourceforge.net/DTD/sodipodi-0.dtd"
   xmlns:inkscape="http://www.inkscape.org/namespaces/inkscape"
   width="1000"
   height="1000"
   id="svg4427"
   version="1.1"
   inkscape:version="0.48.4 r9939"
   sodipodi:docname="news.svg">
  <defs
     id="defs4429" />
  <sodipodi:namedview
     id="base"
     pagecolor="#ffffff"
     bordercolor="#666666"
     borderopacity="1.0"
     inkscape:pageopacity="0.0"
     inkscape:pageshadow="2"
     inkscape:zoom="0.77518519"
     inkscape:cx="401.96136"
     inkscape:cy="517.03322"
     inkscape:document-units="px"
     inkscape:current-layer="layer2"
     showgrid="true"
     showguides="false"
     inkscape:guide-bbox="true"
     inkscape:window-width="1920"
     inkscape:window-height="1056"
     inkscape:window-x="0"
     inkscape:window-y="24"
     inkscape:window-maximized="1">
    <inkscape:grid
       type="xygrid"
       id="grid4943"
       empspacing="5"
       visible="true"
       enabled="true"
       snapvisiblegridlinesonly="true" />
    <sodipodi:guide
       orientation="1,0"
       position="100.62112,776.58862"
       id="guide3782" />
    <sodipodi:guide
       orientation="1,0"
       position="900.43,734.01815"
       id="guide3784" />
    <sodipodi:guide
       orientation="1,0"
       position="559.86622,472.14524"
       id="guide3786" />
    <sodipodi:guide
       orientation="0,1"
       position="559.86622,472.14524"
       id="guide3788" />
    <sodipodi:guide
       orientation="0,1"
       position="559.86622,181.89202"
       id="guide3790" />
  </sodipodi:namedview>
  <metadata
     id="metadata4432">
    <rdf:RDF>
      <cc:Work
         rdf:about="">
        <dc:format>image/svg+xml</dc:format>
        <dc:type
           rdf:resource="http://purl.org/dc/dcmitype/StillImage" />
        <dc:title />
      </cc:Work>
    </rdf:RDF>
  </metadata>
  <g
     inkscape:label="Calque 1"
     inkscape:groupmode="layer"
     id="layer1"
     transform="translate(0,-52.362183)"
     style="display:none">
    <path
       style="fill:#c7c7c7;fill-opacity:1;stroke:none"
       d="m 80,80 840,0 0,840 -840,0 z"
       id="rect4945"
       transform="translate(0,52.362183)"
       inkscape:connector-curvature="0" />
    <rect
       style="fill:#606060;fill-opacity:1;stroke:none"
       id="rect4950"
       width="760"
       height="20"
       x="120"
       y="120"
       transform="translate(0,52.362183)" />
    <rect
       style="fill:#606060;fill-opacity:1;stroke:none"
       id="rect4952"
       width="760"
       height="20"
       x="120"
       y="392.98331" />
    <rect
       style="fill:#606060;fill-opacity:1;stroke:none"
       id="rect4954"
       width="200.00955"
       height="259.95724"
       x="640"
       y="672.40491" />
    <rect
       style="fill:#606060;fill-opacity:1;stroke:none"
       id="rect4958"
       width="680.55902"
       height="20"
       x="160"
       y="632.43909" />
    <rect
       y="672.19708"
       x="160"
       height="20"
       width="459.96655"
       id="rect4960"
       style="fill:#606060;fill-opacity:1;stroke:none" />
    <rect
       style="fill:#606060;fill-opacity:1;stroke:none"
       id="rect4962"
       width="459.96655"
       height="20"
       x="160"
       y="712.19708" />
    <rect
       style="fill:#606060;fill-opacity:1;stroke:none"
       id="rect4964"
       width="459.96655"
       height="20"
       x="160"
       y="752.19708" />
    <rect
       style="fill:#606060;fill-opacity:1;stroke:none"
       id="rect4966"
       width="459.96655"
       height="20"
       x="160"
       y="792.19708" />
    <rect
       style="fill:#606060;fill-opacity:1;stroke:none"
       id="rect4968"
       width="459.96655"
       height="20"
       x="160"
       y="832.19708" />
    <rect
       style="fill:#606060;fill-opacity:1;stroke:none"
       id="rect4970"
       width="459.96655"
       height="20"
       x="160"
       y="872.19708" />
    <rect
       style="fill:#606060;fill-opacity:1;stroke:none"
       id="rect4972"
       width="459.96655"
       height="20"
       x="160"
       y="912.19708" />
    <rect
       style="fill:#606060;fill-opacity:1;stroke:none"
       id="rect4974"
       width="760"
       height="60"
       x="120"
       y="452.98331" />
    <rect
       style="fill:#606060;fill-opacity:1;stroke:none"
       id="rect4976"
       width="680.55902"
       height="20"
       x="160"
       y="592.36218" />
    <rect
       style="fill:#606060;fill-opacity:1;stroke:none"
       id="rect4978"
       width="680.55902"
       height="20"
       x="160"
       y="552.36218" />
    <text
       xml:space="preserve"
       style="font-size:86.38153076px;font-style:normal;font-variant:normal;font-weight:normal;font-stretch:normal;text-align:start;line-height:125%;letter-spacing:0px;word-spacing:0px;text-anchor:start;fill:#000000;fill-opacity:1;stroke:none;font-family:Ubuntu;-inkscape-font-specification:Ubuntu"
       x="190"
       y="372.36218"
       id="text4982"
       sodipodi:linespacing="125%"><tspan
         sodipodi:role="line"
         id="tspan4984"
         x="190"
         y="372.36218"
         style="font-size:222.12394714px">NEWS</tspan></text>
  </g>
  <g
     inkscape:groupmode="layer"
     id="layer2"
     inkscape:label="news">
    <g
       style="font-size:144px;font-style:normal;font-variant:normal;font-weight:normal;font-stretch:normal;text-align:start;line-height:125%;letter-spacing:0px;word-spacing:0px;text-anchor:start;fill:#a6a6a6;fill-opacity:1;stroke:none;font-family:Ubuntu;-inkscape-font-specification:Ubuntu"
       id="text3769"
       transform="matrix(2.0991637,0,0,2.0991637,-128.98741,-218.05893)">
      <path
         d="m 177.53508,298.23221 c -2.11208,-3.552 -4.56008,-7.53599 -7.344,-11.952 -2.68808,-4.41599 -5.61607,-8.97598 -8.784,-13.68 -3.16807,-4.79997 -6.48006,-9.64797 -9.936,-14.544 -3.36006,-4.89596 -6.72005,-9.59995 -10.08,-14.112 -3.36005,-4.60794 -6.62404,-8.92794 -9.792,-12.96 -3.16804,-4.03193 -6.09603,-7.58393 -8.784,-10.656 l 0,77.904 -13.68,0 0,-99.792 11.088,0 c 4.51197,4.80009 9.31196,10.41609 14.4,16.848 5.18395,6.33607 10.27195,12.91207 15.264,19.728 5.08794,6.72005 9.83993,13.34405 14.256,19.872 4.51192,6.52804 8.30392,12.33603 11.376,17.424 l 0,-73.872 13.68,0 0,99.792 -11.664,0"
         style="fill:#a6a6a6;fill-opacity:1"
         id="path3774"
         inkscape:connector-curvature="0" />
      <path
         d="m 214.04133,298.23221 0,-99.792 60.912,0 0,11.952 -46.944,0 0,29.664 41.76,0 0,11.664 -41.76,0 0,34.56 50.544,0 0,11.952 -64.512,0"
         style="fill:#a6a6a6;fill-opacity:1"
         id="path3776"
         inkscape:connector-curvature="0" />
      <path
         d="m 350.74233,230.55221 c -4.03207,12.86405 -8.11206,24.76804 -12.24,35.712 -4.12805,10.94402 -8.25605,21.60001 -12.384,31.968 l -13.968,0 c -5.08803,-14.68799 -9.60002,-30.19197 -13.536,-46.512 -3.84002,-16.31994 -7.44001,-34.07992 -10.8,-53.28 l 14.688,0 c 1.34398,7.48809 2.73597,14.97608 4.176,22.464 1.43997,7.48807 2.92797,14.78406 4.464,21.888 1.53597,7.00805 3.07197,13.72804 4.608,20.16 1.53596,6.43203 3.11996,12.38402 4.752,17.856 3.83996,-10.07997 7.91995,-21.11996 12.24,-33.12 4.31994,-12.09594 8.35194,-24.57593 12.096,-37.44 l 12.096,0 c 3.74392,12.86407 7.82391,25.34406 12.24,37.44 4.41591,12.00004 8.5439,23.04003 12.384,33.12 1.5359,-5.37598 3.07189,-11.27997 4.608,-17.712 1.53589,-6.43196 3.02389,-13.15195 4.464,-20.16 1.53589,-7.10394 3.02389,-14.39993 4.464,-21.888 1.43988,-7.58392 2.83188,-15.11991 4.176,-22.608 l 14.256,0 c -3.45613,19.20008 -7.15213,36.96006 -11.088,53.28 -3.84012,16.32003 -8.25611,31.82401 -13.248,46.512 l -13.968,0 c -4.22409,-10.36799 -8.35209,-21.02398 -12.384,-31.968 -4.03208,-10.94396 -8.06408,-22.84795 -12.096,-35.712"
         style="fill:#a6a6a6;fill-opacity:1"
         id="path3778"
         inkscape:connector-curvature="0" />
      <path
         d="m 453.22533,288.29621 c 14.59195,1e-5 21.88794,-4.99199 21.888,-14.976 -6e-5,-3.07197 -0.67206,-5.66397 -2.016,-7.776 -1.24806,-2.20797 -2.97606,-4.07996 -5.184,-5.616 -2.20805,-1.63196 -4.75205,-3.02396 -7.632,-4.176 -2.78404,-1.15196 -5.76004,-2.30396 -8.928,-3.456 -3.64803,-1.24795 -7.10403,-2.63995 -10.368,-4.176 -3.26402,-1.63195 -6.09602,-3.50395 -8.496,-5.616 -2.40002,-2.20794 -4.32001,-4.79994 -5.76,-7.776 -1.34401,-2.97594 -2.01601,-6.57593 -2.016,-10.8 -10e-6,-8.73592 2.97599,-15.55191 8.928,-20.448 5.95197,-4.8959 14.15997,-7.3439 24.624,-7.344 6.04795,1e-4 11.51994,0.6721 16.416,2.016 4.99193,1.2481 8.63993,2.6401 10.944,4.176 l -4.464,11.376 c -2.01607,-1.24792 -5.04006,-2.44791 -9.072,-3.6 -3.93605,-1.24791 -8.54405,-1.87191 -13.824,-1.872 -2.68804,9e-5 -5.18404,0.28809 -7.488,0.864 -2.30404,0.57609 -4.32003,1.44009 -6.048,2.592 -1.72803,1.15208 -3.12003,2.64008 -4.176,4.464 -0.96003,1.72808 -1.44003,3.79208 -1.44,6.192 -3e-5,2.68807 0.52797,4.94407 1.584,6.768 1.05597,1.82407 2.54397,3.45606 4.464,4.896 1.91997,1.34406 4.12796,2.59206 6.624,3.744 2.59196,1.15206 5.42396,2.30406 8.496,3.456 4.31995,1.72805 8.25594,3.45605 11.808,5.184 3.64794,1.72805 6.76793,3.79205 9.36,6.192 2.68793,2.40004 4.75193,5.28004 6.192,8.64 1.43992,3.26403 2.15992,7.24803 2.16,11.952 -8e-5,8.73601 -3.21607,15.45601 -9.648,20.16 -6.33606,4.704 -15.31205,7.056 -26.928,7.056 -3.93604,0 -7.58403,-0.288 -10.944,-0.864 -3.26403,-0.48 -6.19202,-1.056 -8.784,-1.728 -2.59202,-0.768 -4.84802,-1.536 -6.768,-2.304 -1.82401,-0.864 -3.26401,-1.584 -4.32,-2.16 l 4.176,-11.52 c 2.20798,1.24801 5.56798,2.64001 10.08,4.176 4.51197,1.53601 10.03197,2.30401 16.56,2.304"
         style="fill:#a6a6a6;fill-opacity:1"
         id="path3780"
         inkscape:connector-curvature="0" />
    </g>
    <rect
       style="fill:#a6a6a6;fill-opacity:1;stroke:none"
       id="rect3792"
       width="303.15338"
       height="258.00287"
       x="559.86621"
       y="560.10504" />
    <rect
       y="558.70038"
       x="142.44408"
       height="60.640228"
       width="378.84595"
       id="rect3806"
       style="fill:#a6a6a6;fill-opacity:1;stroke:none" />
    <rect
       style="fill:#a6a6a6;fill-opacity:1;stroke:none"
       id="rect3808"
       width="378.84595"
       height="60.640228"
       x="141.28046"
       y="659.32153" />
    <rect
       y="759.94269"
       x="141.28046"
       height="59.350216"
       width="378.84595"
       id="rect3810"
       style="fill:#a6a6a6;fill-opacity:1;stroke:none" />
  </g>
</svg>
